# xmcd
# 
# Track frame offsets:
#     150
#     18487
#     32465
#     54525
# 
# Disc length: 1062
# 
# Revision: 0
# Processed by: cddbd v1.5.2PL0 Copyright (c) Steve Scherf et al.
# Submitted via: fre:ac v1.0.17
# 
DISCID=27042404
DTITLE=Balkan -Zum - sampler
DYEAR=0
DGENRE=World Music
TTITLE0=1
TTITLE1=2
TTITLE2=3
TTITLE3=4
EXTD=
EXTT0=
EXTT1=
EXTT2=
EXTT3=
PLAYORDER=
